<svg xmlns="http://www.w3.org/2000/svg" width="1000" height="1000"><path d="M503 841l-60 40q-7 4-20 16.5T391 915q-19 5-39.5 7.5T303 925q-13 0-41-1t-45-1h-25q-10 0-17.5-1t-21.5-6q-14-5-29-24.5t-24-28q-9-8.5-9-18.5 0-11 16-22 21-12 30.5-17.5t20-8Q168 795 181 795q7 0 23 1t25 1q16 0 42 1t37 1q12 0 27-1t32-4q17-3 26.5-8.5T403 768q0-10-12-10-12 1-18 1-8 0-16.5-5.5t-32-13.5q-23.5-8-23.5-24 0-21 24.5-43t28-30.5Q357 634 357 626q0-12-25-35.5t-33-42q-8-18.5-13.5-42.5t-5.5-54q0-69 33.5-112.5t50-58q16.5-14.5 35-25t34-18.5q15.5-8 30.5-8l2-6q-28-17-31-25t-3-18q0-21 13-36.5t24.5-19Q480 122 502 119q17 4 30 7t26 18.5q13 15.5 13 37.5 0 9-3.5 18T542 221q-4 5-8 9 24 5 32.5 8.5T607 260q32 18 59 53.5t40.5 68Q720 414 720 452q0 53-14.5 86.5t-38.5 54Q643 613 643 627q0 7 4 16t28 31q24 22 24 42 0 15-22.5 23t-31 14q-8.5 6-21.5 6-10-1-14-1-13 0-13 8 0 13 9.5 19t23 8.5q13.5 2.5 31.5 4t34 1.5q13 0 43.5-1t32.5-1q9 0 25-1t23-1q12 0 23 2t23.5 9.5Q878 814 893 822q16 11 16 23 0 10-9 18t-24.5 28Q860 911 848 916.5t-19 6.5q-7 1-18 1-17-1-28-1-25 0-47.5 1t-44.5 2q-33 0-46-2t-33-7.5q-20-5.5-33-18t-22-18q-9-5.5-23.5-17.5T503 841z" fill="currentColor" stroke="#ffc" stroke-width="7"/><path d="M653 695q-6-9-11-18-20-18-36-19-40-6-63.5-8.5T502 647q-25 0-51 4t-49.5 6.5Q378 660 353 684q-2 7-3 13 6 1 17 1 19 0 63-7t72-7q27 0 76.5 6t53.5 6q14 0 21-1zM579 613q19 9 26 11.5t12 3.5q-2-12 0-17.5t5-9.5q-11-2-22-10t-21-11q-10-3-36-5t-41-2q-25 0-44 1.5t-33.5 5.5q-14.5 4-25 11.5T380 601q2 4 4.5 10.5t.5 16.5q7-1 15-3 11-6 23-12 13-4 31-6.5t30-2.5h10.5l7.5 1q10-1 17-1 17 0 29.5 1.5T579 613zM519 502v-60h56v-36h-56v-60h-36v60h-60v36h60v60z" fill="#ffc"/></svg>