<svg xmlns="http://www.w3.org/2000/svg" width="1000" height="1000"><path d="M525 150h74v50h-75v58q11-5 29 6t28.5 23.5Q592 300 598 358q3 4 7 8 11-28 51-42.5t73-14.5q31 0 61.5 11t44.5 19q14 8 31.5 26.5t26 47Q901 441 901 480q0 45-23 90-19 33-29 52l-80 104q-9 18-14 29.5t-5 23.5q0 6 2 13.5t25.5 17.5q23.5 10 25.5 24 4 28-26 40.5t-52 23q-22 10.5-50.5 16T602 927q-44 8-101 8t-104.5-9q-47.5-9-72.5-13-26-6-50.5-17.5T223 873q-28-15-24-39 2-12 26-24t26-22q3-16-4.5-31.5T231 726q-9-22-41-57t-54.5-75.5Q113 553 106 532t-7-52q0-41 8-68t26.5-46.5Q152 346 164 339t44-18.5q32-11.5 64-11.5 34 0 63.5 11t41 21q11.5 10 16.5 25 2-3 5-6 7-58 18-71t28.5-24.5Q462 253 473 258v-58h-74v-50h74V77h52z" fill="currentColor" stroke="#ffc" stroke-width="7"/><path d="M475 632V523v1q-11-44-27-65-19-17-28.5-29t-18-18.5Q393 405 366 388t-44.5-25.5Q304 354 279 354q-34 0-49.5 3t-43 21.5Q159 397 150.5 425t-8.5 47q0 16 3.5 31t7.5 32q4 17 10.5 31t21 37.5Q199 627 212 642t29 30q22-8 52-16t66-14q36-6 57.5-8t58.5-2zM657 644q14 2 47 10.5t55 17.5q19-18 28.5-29t27-38.5q17.5-27.5 24-42.5t10-31q3.5-16 6.5-33t3-27q0-18-8.5-46t-35-46Q788 361 769 357.5t-48-3.5q-26 0-41.5 7.5t-42 24q-26.5 16.5-38 26t-25 25Q561 452 546 469q-13 21-21 55v-1 109q36 0 59.5 2.5T657 644zM621 754q13 1 50 9t38 8q4 0 2.5-6.5t1.5-9.5q-5-9-9-19-10-4-62-12t-86-8q-34 0-56-2l-116 6q-63 9-83 13t-20 15q0 1 3.5 5.5t1.5 11q-2 6.5 3 6.5 13-1 50-9t59-10.5q22-2.5 47-2.5 11 0 25 .5t31 .5h32l28-1q13 0 29 2t31 3zM563 388q3-20 6-41 0-16-9-30.5T536 294q-15-8-35-8-43 0-57 24.5T430 349q0 8 3 19.5t4 19.5q6 22 23.5 47.5T500 490q5-9 31.5-43t31.5-59zM638 821q14 0 47.5 8t57.5 15v-5q-8-9-2.5-19.5T709 800q-53-9-78.5-13.5T584 781q-21-1-48-1h-70q-43 0-53.5 1t-43 6.5Q337 793 301 799t-36 20q0 1 2 7 2 3-2.5 9.5T261 844q9-3 52.5-13t52.5-10l136-2z" fill="#ffc"/><path d="M444 606v-85 1q-8-34-21-51-15-14-26-27.5T364 419q-20-14-36.5-21.5T291 390q-13 0-30 1t-40 16q-23 15-29.5 38t-6.5 36q0 9 1.5 18t5.5 25.5q4 16.5 9.5 28T221 589q9 13 18.5 24t22.5 23q4-1 33.5-8.5T342 615q28-4 49-6.5t53-2.5zM658 615q21 5 41 10t39 11q10-10 20.5-21t22-30q11.5-19 17.5-31t9.5-28.5q3.5-16.5 5.5-26t2-19.5q0-13-6.5-35.5t-27.5-36q-21-13.5-35.5-16T709 390q-18 0-29.5 4t-35 18.5Q621 427 614 432.5T596 451q-12 10-21.5 22.5T556 522v-1 85q37 0 62 3.5t40 5.5zM541 379q4-20 4-26 0-7-5-19-6-9-16-12.5t-23-3.5q-16 0-25 2.5t-15 13q-6 10.5-6 22.5t4 23q4 18 21.5 40t19.5 28q3-6 20.5-28t20.5-40z" fill="currentColor"/></svg>