<svg xmlns="http://www.w3.org/2000/svg" width="1000" height="1000"><path d="M915 920H297q0-71 8.5-99t30.5-60l114-126q19-30 29-48t19-45q-6 0-12-1-35 28-69 55-13 7-46.5 19.5t-49 25.5Q306 654 293 679t-26.5 38q-13.5 13-22 21t-20.5 8q-11 0-23.5-12.5T179 721q-6 0-13 3.5t-14 3.5q-20 0-42-22t-29-50q-2-13-3-19t-1-11q0-43 36.5-109t51-106.5q14.5-40.5 27-73.5t33-59.5Q245 251 249 243t6-22q3-21-7-39.5T232.5 152q-5.5-11-11-25t-5.5-20q0-11 9-15t21 2q10 7 21 12.5t32 23q21 17.5 31 24.5t20.5 14.5Q361 176 372 173q12-3 18-18 6-21 8-27.5t3.5-24.5q1.5-18 8.5-25t13-7q12 0 29.5 34.5t22 40.5q4.5 6 15 22t18.5 21.5q8 5.5 17.5 7.5t16.5 2q19-1 30-1 5 0 19 2 30 7 50.5 17t51 31q30.5 21 50 42.5t47 60Q817 389 832 419t36 86q21 56 30.5 94.5t15 85Q919 731 921 756t2 53q0 25-2 48.5t-6 62.5z" fill="currentColor" stroke="#ffc" stroke-width="7"/><path d="M270 407q6-5 11.5-10.5T292 385q5-6 18-13.5t17-12.5l20-16q3-4-3-11-18-19-32-19-6 0-12.5 3t-16 8q-9.5 5-15 11T256 353.5q-7 12.5-11 31.5t-13 39q3 1 6 1 12-5 32-18zM136 633q11-4 17-8.5t12.5-18Q172 593 172 573q0-7-13.5-2T138 586.5q-7 10.5-8.5 19.5t-1.5 17q0 7 1.5 9.5t6.5.5zM229 696q10-6 17.5-19.5T254 653q0-6-3.5-10t-8.5-4q-5 0-12.5 10.5T220 664q-6 6-11.5 14.5T203 695q0 6 9 6t17-5zM332 222q-9 3-24 22t-15 27q0 3 3 3t10-3l43-26q7-3 14-7t10-16q-3-1-6-3h-10q-13 0-25 3zM535 398q-5 1-9 2-3 6-8.5 31t-14 46.5Q495 499 495 504q0 3 3 2t9-6.5q6-5.5 16-17t13-24.5q3-13 5-19.5t2-12.5q0-11-8-28zM503 222q17 9 31 13t32 11.5q18 7.5 40.5 25.5t41 32q18.5 14 35 34.5T719 394q20 35 33.5 68t26 73.5Q791 576 799 628t12 76.5q4 24.5 5 38.5t1 33q0 15-1 51t-1 48h49v-62q0-46-6-108.5T845.5 607q-6.5-35-24-88.5t-30-82.5q-12.5-29-39-67t-44-58.5Q691 290 664 274q-25-17-47.5-30.5t-38-17Q563 223 551 223t-19-1z" fill="#ffc"/></svg>