<svg xmlns="http://www.w3.org/2000/svg" width="1000" height="1000"><path d="M228.5 757q10-45 23-69.5t38-55q25-30.5 45-42t59-24.5q3-2 6-5-19-12-37-24-15-14-23.5-44t-8.5-55q0-11 2-23t16.5-37.5q14.5-25.5 30-38t32-15q16.5-2.5 31.5-4.5 2-2 5-4-16-7-31-14-12-10-18-27.5t-6-35.5q0-17 3.5-29t19.5-29.5q16-17.5 31.5-27.5t51.5-10q37 0 53.5 9.5t36 31q19.5 21.5 19.5 56.5 0 41-24 62-25 10-31 13 2 3 5 5 16 2 33 3 14 3 31.5 16.5t31 42q13.5 28.5 15 37t1.5 19.5q0 27-7.5 55.5t-22.5 42q-15 13.5-25 18.5t-15 8q4 3 23.5 9.5t41 18.5q21.5 12 45 41t38 57.5q14.5 28.5 22 60t8.5 44.5q1 13 1 32 0 9-1 32t-1 39h-554q0-18-.5-35t-.5-33q0-21 1-35.5t6-35.5z" fill="currentColor" stroke="#ffc" stroke-width="7"/></svg>