<svg xmlns="http://www.w3.org/2000/svg" width="1000" height="1000"><path d="M566.5 134q6 15 6 29 0 16-9 28l-24 18q-4 7-4 18 0 17 16.5 70.5t18.5 63.5q2 10 4.5 82t10.5 72q3 0 13.5-20.5t23.5-72.5q13-52 18-66.5t24.5-43q19.5-28.5 19.5-45.5 0-10-3-17.5t-13-16.5q-10-9-15-21.5t-5-27.5q0-16 12.5-37.5t49.5-21.5q36 0 49.5 22.5t13.5 38.5q0 10-1.5 15.5t-6 16.5q-4.5 11-17 18.5t-18.5 23q-6 15.5-8.5 28t-2.5 31.5v25l1 27q0 31-1 60t-2 56q0 48 10 48 6 0 16.5-15t25-46.5q14.5-31.5 21.5-43T827 388q29.5-31 27.5-38-2-8-10.5-18t-11-17.5q-2.5-7.5-4-15t-1.5-14.5q0-14 13-37.5t47-23.5q34 0 47 22.5t13 37.5q0 16-6.5 29t-23.5 24.5Q900.5 349 892 359t-13.5 34q-6 42-12.5 84.5T856 548q-3.5 28-19.5 54-29 40-44.5 63t-19.5 45q-4 22-6 34t-2 22q0 16 4 29.5t15 26q11 12.5 11 23.5 0 17-7 26.5t-20 24q-13 14.5-40 18t-53 6.5q-99 21-174 21-74 0-175-21-36-4-58-7t-36-18.5q-14-15.5-20-25.5t-6-24q0-9 12-25t15-27q3-11 3-27 0-9-2-23t-6-34.5q-4-20.5-24-49t-38-56q-18-27.5-23-61T132 469q-5.5-40-9-68t-15.5-42.5q-12-14.5-27-23.5T59 313q-6.5-13-6.5-29 0-15 13-37.5t47-22.5q34 0 44.5 18t13 25.5q2.5 7.5 2.5 17.5 0 15-6 32-11 17-21 33-1 6 30.5 42.5t44.5 61.5q13 25 36 67 10 14 16 14 10 0 10-48 0-39-1-66t-2-50v-27l1-25q0-18-2-30.5t-9-29q-7-16.5-19-24t-15-14.5q-3-7-6-18t-3-18q0-15 13.5-37.5t49.5-22.5q37 0 49.5 21.5t12.5 38.5q0 14-5 26.5t-15.5 23Q320.5 245 318 251t-2.5 17q0 15 19 42.5T368 384q14.5 46 38.5 122 5 9 8 9 6 0 7.5-72t5.5-93q4-21 20-65t16-60q0-8-2-13.5t-12-11q-10-5.5-16-13.5t-6-25q0-13 7-30t25-27q18-10 40-10 24 0 41.5 9.5t25.5 29.5z" fill="currentColor" stroke="#ffc" stroke-width="7"/><path d="M364.5 613q-58 8-93.5 16t-35.5 19q0 4 4.5 6.5t6.5 10q2 7.5 8 7.5 13 0 27.5-4t28.5-8q46-5 84.5-6.5t105.5-1.5q66 0 103.5 1.5t83.5 6.5l54 12q6 0 8.5-7.5t7.5-10q5-2.5 5-6.5 0-10-40-19T640 614q-42.5-6-72.5-8t-66-2q-74 0-137 9zM639.5 736q7 1 40 6t44 5q2 0 4-1-3-9 1-13.5t4-9.5q0-13-42-19t-57.5-7.5q-15.5-1.5-42.5-2.5t-39-1h-51q-33 0-58.5.5t-79 7q-53.5 6.5-72.5 10t-19 15.5q0 4 4.5 8.5t1.5 10.5q1 3 3 5l84-12q60-7 97-7H535l28.5-1q19 0 38 2zM638.5 807q14 0 47.5 8t57.5 15v-5q-8-9-2.5-19.5T709.5 786q-53-9-78.5-13.5t-46.5-5.5q-21-1-48-1h-70q-43 0-53.5 1t-43 6.5q-32.5 5.5-68.5 11.5t-36 20q0 1 2 7 2 3-2.5 9.5t-3.5 8.5q9-3 52.5-13t52.5-10l136-2z" fill="#ffc"/></svg>