<svg xmlns="http://www.w3.org/2000/svg" width="1000" height="1000"><path d="M502 841l-60 40c-4.667 2.667-12.847 11.65-20 16.5-13.071 8.864-28.867 19.463-41.534 22.797-12.667 3.333-16.3.536-29.966 2.203-13.667 1.667-29.833 2.5-48.5 2.5-8.667 0-22.333-.333-41-1s-33.667-1-45-1h-25c-6.667 0-12.5-.333-17.5-1s-12.167-2.667-21.5-6-19-11.5-29-24.5-18-22.333-24-28c-6-5.667-9-11.833-9-18.5 0-7.333 5.333-14.667 16-22 14-8 24.167-13.833 30.5-17.5 6.333-3.667 13-6.333 20-8 7-1.667 14.833-2.5 23.5-2.5 4.667 0 12.333.333 23 1s19 1 25 1c10.667 0 24.667.333 42 1s29.667 1 37 1c8 0 17-.333 27-1s20.667-2 32-4c11.333-2 20.167-4.833 26.5-8.5 6.333-3.667 9.5-9.5 9.5-17.5 0-6.667-4-10-12-10-8 .667-14 1-18 1-5.333 0-10.833-1.833-16.5-5.5s-16.333-8.167-32-13.5c-15.667-5.333-23.5-13.333-23.5-24 0-14 8.167-28.333 24.5-43 16.333-14.667 25.667-24.833 28-30.5 2.333-5.667 3.5-11.167 3.5-16.5 0-8-8.333-19.833-25-35.5-16.667-15.667-27.667-29.667-33-42-5.333-12.333-9.833-26.5-13.5-42.5s-5.5-34-5.5-54c0-46 11.167-83.5 33.5-112.5s39-48.333 50-58c11-9.667 22.667-18 35-25 12.333-7 23.667-13.167 34-18.5 12.619-7.873 16.682-6.272 28.263-10.292C441.073 215.69 430.118 201.522 430 181c0-14 4.333-26.167 13-36.5 8.667-10.333 16.833-16.667 24.5-19 7.667-2.333 22.127-6.714 33.5-6.5 10.267.193 21.333 5 30 7 8.667 2 17.333 8.167 26 18.5 8.667 10.333 13 22.833 13 37.5-.218 24.01-23.649 40.235-34.352 46.94 16 3.334 24.185 7.227 29.852 9.56 5.667 2.333 19.167 9.5 40.5 21.5s41 29.833 59 53.5 31.5 46.333 40.5 68S719 426.667 719 452c0 35.333-4.833 64.167-14.5 86.5s-22.5 40.333-38.5 54c-16 13.667-24 25.167-24 34.5 0 4.667 1.333 10 4 16s12 16.333 28 31c16 14.667 24 28.667 24 42 0 10-7.5 17.667-22.5 23-15 5.333-25.333 10-31 14-5.667 4-12.833 6-21.5 6-6.667-.667-11.333-1-14-1-8.667 0-13 2.667-13 8 0 8.667 3.167 15 9.5 19s14 6.833 23 8.5c9 1.667 19.5 3 31.5 4s23.333 1.5 34 1.5c8.667 0 23.167-.333 43.5-1s31.167-1 32.5-1c6 0 14.333-.333 25-1s18.333-1 23-1c8 0 15.667.667 23 2s15.167 4.5 23.5 9.5S882 816.667 892 822c10.667 7.333 16 15 16 23 0 6.667-3 12.667-9 18s-14.167 14.667-24.5 28-19.5 21.833-27.5 25.5c-8 3.667-14.333 5.833-19 6.5-4.667.667-10.667 1-18 1-11.333-.667-20.667-1-28-1-16.667 0-32.5.333-47.5 1s-29.833 1.333-44.5 2c-22 0-37.333-.667-46-2-8.667-1.333-19.667-3.833-33-7.5-13.333-3.667-24.333-9.667-33-18-8.667-8.333-16-14.333-22-18s-13.833-9.5-23.5-17.5a283.211 283.211 0 00-30.5-22z" stroke="#ffc" stroke-width="7"/><path d="M447 779q-12-8-25.5 13.5t-22 26.5q-8.5 5-19.5 11t-23 6H197q-26 0-36.5 2T150 848q0 4 6 12 22 24 48 24h174q12 0 39-23.5t36.5-27.5q9.5-4 15-15.5T474 785q0-8-5-8-7 2-12 3.5t-10-1.5zM524 785q0 22 5 33t18.5 16.5Q561 840 583 862t37 22h174q14 0 25-5.5t20-16q9-10.5 9-14.5 0-5-11.5-8.5T798 836H641q-13 0-25-7t-19-11q-7-4-20.5-25.5t-21.5-16q-8 5.5-16.5 3T529 777q-5 0-5 8zM656 713q-3-5-5-10-23-12-52.5-14.5t-51.5-4q-22-1.5-46-1.5-25 0-46.5 1.5t-51.5 4q-30 2.5-52 13.5-3 6-6 11 29 17 67.5 23.5T501 743q55 0 89.5-5.5T656 713zM443 606q-9 0-20.5 4.5T396 620q-4 11-10 23t-17 21q3 0 12.5-2t33-6.5Q438 651 466 651h52q14 0 33.5 1t36.5 4q23 6 30 7t11 1q-9-7-16-20t-13-24q-7-2-19-8t-22-6h-29.5l-28.5-1q-14 0-28.5.5t-29.5.5zM593 587q19 8 47.5-32t32-58.5Q676 478 676 470v-12q0-29-10-54t-27-51.5Q622 326 606 311t-33-27q-17-12-38-17t-36-10q-25 6-42 10t-34.5 16.5Q405 296 389 311t-33 41.5q-17 26.5-27 52T319 459q0 17 3.5 36.5t32 58.5q28.5 39 47.5 33 34-10 48-12.5t39-2.5h13q32 0 49.5 2.5T593 587zM466 160c-4.667 5.333-7 13.333-7 24 2.54 24.122 22.978 29.854 41 30 22.05.28 40.722-9.26 41-31 0-10-1.833-17.333-5.5-22-7.873-8.616-25.294-15.308-35.5-15.53-11.571 1.2-27.531 5.702-34 14.53z" fill="#ffc" stroke="#0d0000"/><path d="M518 502h-36v-60h-60v-36h60v-60h36v60h56v36h-56z" fill="#050000" stroke="#0d0000"/></svg>