<svg xmlns="http://www.w3.org/2000/svg" width="1000" height="1000"><path d="M447 779q-12-8-25.5 13.5t-22 26.5q-8.5 5-19.5 11t-23 6H197q-26 0-36.5 2T150 848q0 4 6 12 22 24 48 24h174q12 0 39-23.5t36.5-27.5q9.5-4 15-15.5T474 785q0-8-5-8-7 2-12 3.5t-10-1.5zm77 6q0 22 5 33t18.5 16.5Q561 840 583 862t37 22h174q14 0 25-5.5t20-16q9-10.5 9-14.5 0-5-11.5-8.5T798 836H641q-13 0-25-7t-19-11q-7-4-20.5-25.5t-21.5-16q-8 5.5-16.5 3T529 777q-5 0-5 8zm132-72q-3-5-5-10-23-12-52.5-14.5t-51.5-4q-22-1.5-46-1.5-25 0-46.5 1.5t-51.5 4q-30 2.5-52 13.5-3 6-6 11 29 17 67.5 23.5T501 743q55 0 89.5-5.5T656 713zM443 606q-9 0-20.5 4.5T396 620q-4 11-10 23t-17 21q3 0 12.5-2t33-6.5Q438 651 466 651h52q14 0 33.5 1t36.5 4q23 6 30 7t11 1q-9-7-16-20t-13-24q-7-2-19-8t-22-6h-29.5l-28.5-1q-14 0-28.5.5t-29.5.5zm150-19q19 8 47.5-32t32-58.5Q676 478 676 470v-12q0-29-10-54t-27-51.5Q622 326 606 311t-33-27q-17-12-38-17t-36-10q-25 6-42 10t-34.5 16.5Q405 296 389 311t-33 41.5q-17 26.5-27 52T319 459q0 17 3.5 36.5t32 58.5q28.5 39 47.5 33 34-10 48-12.5t39-2.5h13q32 0 49.5 2.5T593 587zM466 160q-7 8-7 24 0 9 8 19.5t33 10.5q25 0 33-9.5t8-21.5q0-15-5.5-22t-15-9.5Q511 149 502 146q-14 2-22.5 4.5T466 160zm52 342h-36v-60h-60v-36h60v-60h36v60h56v36h-56zm-16 339l-60 40q-7 4-20 16.5T390 915q-19 5-39.5 7.5T302 925q-13 0-41-1t-45-1h-25q-10 0-17.5-1t-21.5-6q-14-5-29-24.5t-24-28q-9-8.5-9-18.5 0-11 16-22 21-12 30.5-17.5t20-8Q167 795 180 795q7 0 23 1t25 1q16 0 42 1t37 1q12 0 27-1t32-4q17-3 26.5-8.5T402 768q0-10-12-10-12 1-18 1-8 0-16.5-5.5t-32-13.5q-23.5-8-23.5-24 0-21 24.5-43t28-30.5Q356 634 356 626q0-12-25-35.5t-33-42q-8-18.5-13.5-42.5t-5.5-54q0-69 33.5-112.5t50-58q16.5-14.5 35-25t34-18.5q15.5-8 30.5-8l2-6q-28-17-31-25t-3-18q0-21 13-36.5t24.5-19Q479 122 501 119q17 4 30 7t26 18.5q13 15.5 13 37.5 0 9-3.5 18T541 221q-4 5-8 9 24 5 32.5 8.5T606 260q32 18 59 53.5t40.5 68Q719 414 719 452q0 53-14.5 86.5t-38.5 54Q642 613 642 627q0 7 4 16t28 31q24 22 24 42 0 15-22.5 23t-31 14q-8.5 6-21.5 6-10-1-14-1-13 0-13 8 0 13 9.5 19t23 8.5q13.5 2.5 31.5 4t34 1.5q13 0 43.5-1t32.5-1q9 0 25-1t23-1q12 0 23 2t23.5 9.5Q877 814 892 822q16 11 16 23 0 10-9 18t-24.5 28Q859 911 847 916.5t-19 6.5q-7 1-18 1-17-1-28-1-25 0-47.5 1t-44.5 2q-33 0-46-2t-33-7.5q-20-5.5-33-18t-22-18q-9-5.5-23.5-17.5T502 841z" fill="currentColor"/></svg>