<svg xmlns="http://www.w3.org/2000/svg" width="1000" height="1000"><path d="M525 150h74v50h-75v58q11-5 29 6t28.5 23.5Q592 300 598 358q3 4 7 8 11-28 51-42.5t73-14.5q31 0 61.5 11t44.5 19q14 8 31.5 26.5t26 47Q901 441 901 480q0 45-23 90-19 33-29 52l-80 104q-9 18-14 29.5t-5 23.5q0 6 2 13.5t25.5 17.5q23.5 10 25.5 24 4 28-26 40.5t-52 23q-22 10.5-50.5 16T602 927q-44 8-101 8t-104.5-9q-47.5-9-72.5-13-26-6-50.5-17.5T223 873q-28-15-24-39 2-12 26-24t26-22q3-16-4.5-31.5T231 726q-9-22-41-57t-54.5-75.5Q113 553 106 532t-7-52q0-41 8-68t26.5-46.5Q152 346 164 339t44-18.5q32-11.5 64-11.5 34 0 63.5 11t41 21q11.5 10 16.5 25 2-3 5-6 7-58 18-71t28.5-24.5Q462 253 473 258v-58h-74v-50h74V77h52z" fill="currentColor" stroke="#ffc" stroke-width="7"/><path d="M721 852q-4-6-8-11-36-12-75-12-22 0-67-3t-73-3q-29 0-72 4t-66 4q-25 0-59 8-12 6-23 13 43 18 98.5 26t123.5 8q134 0 221-34zM475 632V523v1q-11-44-27-65-19-17-28.5-29t-18-18.5Q393 405 366 388t-44.5-25.5Q304 354 279 354q-34 0-49.5 3t-43 21.5Q159 397 150.5 425t-8.5 47q0 16 3.5 31t7.5 32q4 17 10.5 31t21 37.5Q199 627 212 642t29 30q22-8 52-16t66-14q36-6 57.5-8t58.5-2zM657 644q14 2 47 10.5t55 17.5q19-18 28.5-29t27-38.5q17.5-27.5 24-42.5t10-31q3.5-16 6.5-33t3-27q0-18-8.5-46t-35-46Q788 361 769 357.5t-48-3.5q-26 0-41.5 7.5t-42 24q-26.5 16.5-38 26t-25 25Q561 452 546 469q-13 21-21 55v-1 109q36 0 59.5 2.5T657 644zM617 786l88 15v-4q-11-11-8-14 4-4 4-8 0-10-20.5-15T623 750q-37-5-55-5-12 0-23.5.5t-23.5.5h-15q-7-1-10-1-9 1-18 1h-34q-15 0-28.5.5t-25 4q-11.5 3.5-56.5 10T289 777q0 3 5 10 3 3-1.5 8t-7.5 9q11-1 51.5-10t56.5-11.5q16-2.5 31.5-3.5t36.5-1h35q30 0 51 .5t70 7.5zM372 669q-47 9-81 16.5T257 708q0 7 5 12 7 11 11.5 17.5t9.5 6.5q11 0 24-6.5t28-10q15-3.5 38-6t52-2.5q17 0 35.5.5t37.5.5h33l32-1q26 0 48.5 2t51.5 9q16 7 26 10.5t21 3.5q6 0 10-11t7-15q3-4 3-10 0-15-43-25-37-7-73-14-29-8-58.5-11t-59.5-6q-45 4-70 6.5T372 669zM561 387l6-40q0-9-1.5-14t-13-25Q541 288 501 288q-42 0-55.5 24T432 350q0 9 3 20t6 24.5q3 13.5 20.5 38.5t38.5 53q4-7 30-40t31-59z" fill="#ffc"/></svg>