<svg xmlns="http://www.w3.org/2000/svg" width="1000" height="1000"><path d="M915 920H297q0-71 8.5-99t30.5-60l114-126q19-30 29-48t19-45q-6 0-12-1-35 28-69 55-13 7-46.5 19.5t-49 25.5Q306 654 293 679t-26.5 38q-13.5 13-22 21t-20.5 8q-11 0-23.5-12.5T179 721q-6 0-13 3.5t-14 3.5q-20 0-42-22t-29-50q-2-13-3-19t-1-11q0-43 36.5-109t51-106.5q14.5-40.5 27-73.5t33-59.5Q245 251 249 243t6-22q3-21-7-39.5T232.5 152q-5.5-11-11-25t-5.5-20q0-11 9-15t21 2q10 7 21 12.5t32 23q21 17.5 31 24.5t20.5 14.5Q361 176 372 173q12-3 18-18 6-21 8-27.5t3.5-24.5q1.5-18 8.5-25t13-7q12 0 29.5 34.5t22 40.5q4.5 6 15 22t18.5 21.5q8 5.5 17.5 7.5t16.5 2q19-1 30-1 5 0 19 2 30 7 50.5 17t51 31q30.5 21 50 42.5t47 60Q817 389 832 419t36 86q21 56 30.5 94.5t15 85Q919 731 921 756t2 53q0 25-2 48.5t-6 62.5z" fill="currentColor" stroke="#ffc" stroke-width="7"/><path d="M864 698q-12-90-35-155.5T791 445q-15-32-37.5-63T713 325q-20-24-38-33.5T632.5 262Q608 242 591 242q-14 0-28 2t-32 4q-6 0-19 6t-18 6q-6 0-13-9.5T466 213q-8-28-20-40t-17-12q-7 0-19 19.5T391.5 206q-6.5 6-17 20.5t-19 21q-8.5 6.5-15.5 12t-13.5 8.5q-6.5 3-23.5 4t-35 13q-18 12-34.5 59.5t-25 71q-8.5 23.5-47.5 92T122 612q0 16 4.5 31t10.5 20.5q6 5.5 16 7.5 11 2 22-4.5t17-10.5q4-7 18-17t24-10q7 0 12 6 3 4-6 21t-9 24q5 0 11-1 44-70 55.5-79.5t48-23.5q36.5-14 52-24t31-22q15.5-12 31-25t52.5-64q37-51 44-51 5 0 5 11 0 40-3.5 64t-13 65q-9.5 41-17.5 75-11 34-35 63-56 60-111 120-13 18-19.5 35.5T348 872h522v-80q0-38-6-94z" fill="#ffc"/><path d="M252 419q0-29 1-38.5t8-27.5q4-15 7-21t15.5-15q12.5-9 36.5-9 25 0 25 18 0 8-8 15t-19 15q-10 12-16 18.5T291.5 391q-4.5 10-16.5 19t-16 11q-4-1-7-2zM156 587q4-7 15-15t17-8q4 0 4 5 0 7-.5 14t-6 19q-5.5 12-10.5 16.5T156 629q-4 2-6-1t-2-10q0-17 8-31z" fill="currentColor"/><path d="M345 198q-16-10-31.5-20.5T283 161q-2 5-4 9 11 53 11 63 0 6 7 6 6 0 12.5-2.5t16-9.5q9.5-7 16.5-16.5t3-12.5z" fill="#ffc"/></svg>