<svg xmlns="http://www.w3.org/2000/svg" width="1000" height="1000"><path d="M228.5 757q10-45 23-69.5t38-55q25-30.5 45-42t59-24.5q3-2 6-5-19-12-37-24-15-14-23.5-44t-8.5-55q0-11 2-23t16.5-37.5q14.5-25.5 30-38t32-15q16.5-2.5 31.5-4.5 2-2 5-4-16-7-31-14-12-10-18-27.5t-6-35.5q0-17 3.5-29t19.5-29.5q16-17.5 31.5-27.5t51.5-10q37 0 53.5 9.5t36 31q19.5 21.5 19.5 56.5 0 41-24 62-25 10-31 13 2 3 5 5 16 2 33 3 14 3 31.5 16.5t31 42q13.5 28.5 15 37t1.5 19.5q0 27-7.5 55.5t-22.5 42q-15 13.5-25 18.5t-15 8q4 3 23.5 9.5t41 18.5q21.5 12 45 41t38 57.5q14.5 28.5 22 60t8.5 44.5q1 13 1 32 0 9-1 32t-1 39h-554q0-18-.5-35t-.5-33q0-21 1-35.5t6-35.5z" fill="currentColor" stroke="#ffc" stroke-width="7"/><path d="M441.5 206q-13 17-13 37 0 6 1.5 13.5t4.5 14q3 6.5 12.5 13t12.5 9.5l27 27q-33 14-44.5 22t-22 14.5q-10.5 6.5-19.5 17t-16 26.5q-7 16-10.5 25.5t-3.5 20.5q0 13 6 27t15.5 30q9.5 16 22 27t28 22.5q15.5 11.5 23.5 16.5l-63 30q-27 13-44 25.5t-35.5 36q-18.5 23.5-27 44t-14.5 49q-6 28.5-7 42.5t-1 32v23h449v-23q0-18-1-32t-7-42q-6-28-14.5-48.5T673.5 662q-18-23-35-36.5t-45-26.5l-63-30q12-8 24.5-16.5t21.5-17.5q9-9 15.5-16t14-19q7.5-12 13.5-26t6-28q0-11-5-23.5T610 397q-5.5-13-13.5-22.5t-24-19.5q-16-10-23-15.5T526 327q-16.5-7 10.5-34 12-10 24-21 6-15 6-31 0-20-16.5-41t-49.5-21q-14 0-32 7t-27 20z" fill="#ffc"/></svg>