<svg xmlns="http://www.w3.org/2000/svg" width="1000" height="1000"><path d="M566.5 134q6 15 6 29 0 16-9 28l-24 18q-4 7-4 18 0 17 16.5 70.5t18.5 63.5q2 10 4.5 82t10.5 72q3 0 13.5-20.5t23.5-72.5q13-52 18-66.5t24.5-43q19.5-28.5 19.5-45.5 0-10-3-17.5t-13-16.5q-10-9-15-21.5t-5-27.5q0-16 12.5-37.5t49.5-21.5q36 0 49.5 22.5t13.5 38.5q0 10-1.5 15.5t-6 16.5q-4.5 11-17 18.5t-18.5 23q-6 15.5-8.5 28t-2.5 31.5v25l1 27q0 31-1 60t-2 56q0 48 10 48 6 0 16.5-15t25-46.5q14.5-31.5 21.5-43T827 388q29.5-31 27.5-38-2-8-10.5-18t-11-17.5q-2.5-7.5-4-15t-1.5-14.5q0-14 13-37.5t47-23.5q34 0 47 22.5t13 37.5q0 16-6.5 29t-23.5 24.5Q900.5 349 892 359t-13.5 34q-6 42-12.5 84.5T856 548q-3.5 28-19.5 54-29 40-44.5 63t-19.5 45q-4 22-6 34t-2 22q0 16 4 29.5t15 26q11 12.5 11 23.5 0 17-7 26.5t-20 24q-13 14.5-40 18t-53 6.5q-99 21-174 21-74 0-175-21-36-4-58-7t-36-18.5q-14-15.5-20-25.5t-6-24q0-9 12-25t15-27q3-11 3-27 0-9-2-23t-6-34.5q-4-20.5-24-49t-38-56q-18-27.5-23-61T132 469q-5.5-40-9-68t-15.5-42.5q-12-14.5-27-23.5T59 313q-6.5-13-6.5-29 0-15 13-37.5t47-22.5q34 0 44.5 18t13 25.5q2.5 7.5 2.5 17.5 0 15-6 32-11 17-21 33-1 6 30.5 42.5t44.5 61.5q13 25 36 67 10 14 16 14 10 0 10-48 0-39-1-66t-2-50v-27l1-25q0-18-2-30.5t-9-29q-7-16.5-19-24t-15-14.5q-3-7-6-18t-3-18q0-15 13.5-37.5t49.5-22.5q37 0 49.5 21.5t12.5 38.5q0 14-5 26.5t-15.5 23Q320.5 245 318 251t-2.5 17q0 15 19 42.5T368 384q14.5 46 38.5 122 5 9 8 9 6 0 7.5-72t5.5-93q4-21 20-65t16-60q0-8-2-13.5t-12-11q-10-5.5-16-13.5t-6-25q0-13 7-30t25-27q18-10 40-10 24 0 41.5 9.5t25.5 29.5z" fill="currentColor" stroke="#ffc" stroke-width="7"/><path d="M635.5 550q17 0 26.5 3.5t21.5 8.5q13 5 13-12 0-10-4.5-35.5t-4.5-32.5q0-22 2.5-67t2.5-49q0-27-5-27-3 0-12 13T660 402q-6.5 37-9.5 45.5T632 489q-15.5 33-15.5 45 0 16 19 16zM85.5 271q-5 8-5 19 0 4 1 7 3 3 7.5 9t22.5 6q9 0 16-2t11-8q4-6 4-14 0-9-4-15t-11.5-8.5l-13.5-4.5q-13 1-18 2.5t-10 8.5zM262.5 171q-5 8-5 19 0 4 1 7 3 3 7.5 9t22.5 6q9 0 16-2t11-8q4-6 4-14 0-9-4-15t-11.5-8.5l-13.5-4.5q-13 1-18 2.5t-10 8.5zM472.5 145q-5 8-5 20 0 6 7 15.5t27 9.5q12 0 18-2.5t11-9q5-6.5 5-14.5 0-11-4.5-17.5t-15.5-10q-11-3.5-12-4.5-16 3-20.5 4.5t-10.5 8.5zM685.5 173q-5 8-5 19 0 4 1 7 3 3 7.5 9t22.5 6q9 0 16-2t11-8q4-6 4-14 0-9-4-15t-11.5-8.5l-13.5-4.5q-13 1-18 2.5t-10 8.5zM863.5 271q-5 8-5 19 0 4 1 7 3 3 7.5 9t22.5 6q9 0 16-2t11-8q4-6 4-14 0-9-4-15t-11.5-8.5l-13.5-4.5q-13 1-18 2.5t-10 8.5zM364.5 579q-54 14-91.5 28.5T235.5 641q0 7 4 11t10 18q6 14 12 14 11 0 26.5-9t40-14.5q24.5-5.5 70.5-9t102-3.5q66 0 101 2.5t64 9q29 6.5 44.5 15.5t26.5 9q4 0 9-9t11-21q6-6 6-13 0-23-44.5-38t-80.5-23.5q-36-8.5-69.5-11.5t-66.5-6q-50 4-77.5 6.5T364.5 579zM639.5 738l84 13 4-2q-3-11 1-16.5t4-10.5q0-13-20.5-17.5t-61-10q-40.5-5.5-69-6.5t-31.5-1h-51q-46 0-69.5 1t-69.5 8q-46 7-67.5 12t-21.5 17q0 5 4.5 10.5t1.5 12.5l2 6q13 0 35.5-4t49.5-10q26-4 52.5-6t44.5-2H535l28.5-1q19 0 32.5 1t43.5 6z" fill="#ffc"/><path d="M638.5 795l101 15v-4q-13-11-10-14 5-5 5-8 0-10-23.5-14.5T643.5 759q-44-6-74-6-20 0-37 .5t-31 .5h-27l-25-1q-38 0-63 6t-72 11q-47 5-47 16 0 5 5 10 3 3-3.5 9t-6.5 8q13-1 58.5-10t64-11.5q18.5-2.5 36-3.5t41.5-1H555l83.5 8zM231.5 538q-21-42-40-77.5t-28-35.5q-5 0-6 5t-1 12q0 16 13.5 66.5t15 59.5q1.5 9 9.5 23.5t19 14.5q2 0 9.5-3.5t14.5-9.5q7-6 14-10t7-9q0-6-12.5-19.5T231.5 538zM748.5 858q-5-6-9-11-42-14-83-14-37 0-91-3t-63-3q-43 0-76 1.5t-79 4.5q-41 0-80 13l-12 12q46 17 105 22.5t142 5.5q82 0 140-5.5t106-22.5zM353.5 450q-4-11-10.5-48t-21.5-58q-5-6-8-3.5t-3 26.5q0 23 2.5 67t2.5 48q0 12-4.5 37t-4.5 31q0 17 13 12 11-5 20-8.5t28-3.5q19 0 19-16 0-12-15.5-45t-17.5-39zM747.5 584q9 5 16.5 11t15.5 11q14 7 24.5-8.5t12.5-30.5q2-15 15-61t13-62q0-7-1-12t-6-5q-11 0-37 52t-31 61q-12 12-19.5 20.5t-7.5 15.5q0 5 5 8zM546.5 430q1-17 1-24 0-22-4-42t-12-44q-8-24-32-24-12 0-19 6t-15 24.5q-8 18.5-10.5 38.5t-2.5 59q0 16-7.5 51.5t-7.5 41.5q0 24 21 20 3-1 14-3t18-2q3 0 19 2.5t30 2.5q18 0 18-20 0-12-5.5-45.5t-5.5-41.5z" fill="#ffc"/></svg>