<svg xmlns="http://www.w3.org/2000/svg" width="2048" height="2048"><path d="M655 1542.197h718q50 0 50 50t-50 50H655q-50 0-50-50t50-50zM895 1849.197H605q-34 0-47.5-52t-34.5-87q111 0 221.5.5t221.5 1.5q-18 36-20.5 89.5t-50.5 47.5zM1132 1849.197q-45 5-48.5-48t-21.5-89q109-1 220.5-1.5t222.5-.5q-21 35-35 87t-48 52h-144.5zM1064 396.197l-1 44q207 17 350.5 160t143.5 338q0 87-35 185-48 74-86 157t-45 188H637q-11-112-46-185.5t-84-156.5q-36-93-36-188 0-195 143.5-338t350.5-160l-1-44q-83-32-83-93 0-38 38.5-65.5t92.5-27.5q54 0 93 27.5t39 65.5q0 63-80 93z" fill="currentColor"/><path d="M946 1296.197h135l36-310 135-32v-136l-135-36-36-171H946l-35 171-135 36v136l135 32z" fill="#fff"/></svg>