<svg xmlns="http://www.w3.org/2000/svg" width="2048" height="2048"><path d="M1050.108 344.5h98q71 0 121.5 50.5t50.5 120.5v114l43-75q35-61 103.5-79.5t130.5 16.5l233 134q60 36 79 105t-17 129l-203 353q-55 93-163 89h103q55 0 95 40t40 95v69q0 56-40 95.5t-95 39.5h-1230q-56 0-95.5-39.5t-39.5-95.5v-69q0-55 39.5-95t95.5-40h103q-110 4-163-90l-203-352q-36-61-17.5-129.5t79.5-104.5l233-134q60-35 129-16.5t105 78.5l44 77-1-115q0-70 50-120.5t122-50.5h99l-17-86-83-18v-67l83-16 16-85h71l16 85 84 16v67l-84 18zM451.108 1847.5q-48 0-66.5-52t-46.5-87h1352q-28 35-47 87t-66 52h-565z" fill="currentColor"/><path d="M400.108 706.5q-89 53-38 141l101 174q50 89 140 38h1q89-52 37-141l-100-174q-53-88-141-38zM1628.108 707.5q-91-52-141 37l-101 174q-51 89 38 141t141-38l100-174q52-88-37-140zM1014.108 515.5q-103 0-103 103v201q0 103 103 103t103-103v-201q0-103-103-103zM1442.108 1300.5q-76-94-187.5-150t-240.5-56q-130 0-241 56t-186 150zM1117.108 1419.5v103h135v-103zM776.108 1419.5v103h135v-103zM434.108 1419.5v103h136v-103zM1458.108 1419.5v103h135v-103z" fill="#fff"/></svg>