<svg xmlns="http://www.w3.org/2000/svg" viewBox="0 0 2048 2048" width="2048" height="2048"><path d="M397.663 793.483q36-66 78.5-130.5t53.5-142.5q54-18 87.5-59t65.5-87l183 115q-5 4-5 17 0 36 21 60-75 223-304 431-36-30-90-82t-90-122zm1163 477q25-12 29-35 5-36-19-49-160 60-373.5 55t-418.5-109q22-25 47.5-51t46.5-54q32-34 33-42l-12 5-12 9q-22 10-47.5 21.5t-52.5 17.5q-54-8-111 26-31-21-39-29 216-204 306-431 20 2 24 2 100 0 100-100 0-35-22-56l79-113q45 20 79 37 125 55 237-6-28 48-62 77-16 12-35 24 114 107 261 58-31 40-74 65-15 9-50 24 81 138 239 128-43 32-89 43-29 9-49 7 41 153 196 183-50 19-97 19-23 0-45-3 0 11 4 31-2 69-3 120 61 63 141 79-50 19-97 19-17 0-51-4-8 50-18 105 60 68 146 85-50 19-98 19-39 0-92-16-11 18-28 43h-957q-60 0-62-52t67-115q30-35 65-67t70-62q211 120 439.5 134.5t404.5-42.5zm-939-153q-29 27-62 49.5t-73 25.5q-10 0-30 5t-20-5q-18 4-30-2t-30-9q-22-5-63-51.5t-53-66.5q-15-60 22-109.5t76-98.5q37 68 126 151t137 111zm99-800q4-3 17-18 13-42 11.5-90t-8.5-92q23-17 100-5 14 3 35 9 48 27 90.5 72t60.5 102q22 10 34 15l-72 100q-10-4-27-4-40 0-62 25zm-107 292q-45 76-7 97 38 22 82-55 44-75 8-97-39-20-83 55zm-32 1243q-39 0-54-52t-37-87h1091q-24 35-39 87t-53 52h-455.5zm951-307q50 0 50 50t-50 50h-995q-50 0-50-50t50-50z" fill="currentColor"/></svg>