<svg xmlns="http://www.w3.org/2000/svg" width="2048" height="2048"><path d="M621.663 1117.483q-29 27-62 49.5t-73 25.5q-10 0-30 5t-20-5q-18 4-30-2t-30-9q-22-5-63-51.5t-53-66.5q-15-60 22-109.5t76-98.5q37 68 126 151t137 111zM397.663 793.483q36-66 78.5-130.5t53.5-142.5q54-18 87.5-59t65.5-87l183 115q-5 4-5 17 0 36 21 60-75 223-304 431-36-30-90-82t-90-122z" fill="currentColor"/><path d="M1560.663 1270.483q25-12 29-35 5-36-19-49-160 60-373.5 55t-418.5-109q22-25 47.5-51t46.5-54q32-34 33-42l-12 5-12 9q-22 10-47.5 21.5t-52.5 17.5q-54-8-111 26-31-21-39-29 216-204 306-431 20 2 24 2 100 0 100-100 0-35-22-56l79-113q45 20 79 37 125 55 237-6-28 48-62 77-16 12-35 24 114 107 261 58-31 40-74 65-15 9-50 24 81 138 239 128-43 32-89 43-29 9-49 7 41 153 196 183-50 19-97 19-23 0-45-3 0 11 4 31-2 69-3 120 61 63 141 79-50 19-97 19-17 0-51-4-8 50-18 105 60 68 146 85-50 19-98 19-39 0-92-16-11 18-28 43h-957q-60 0-62-52t67-115q30-35 65-67t70-62q211 120 439.5 134.5t404.5-42.5zM720.663 317.483q4-3 17-18 13-42 11.5-90t-8.5-92q23-17 100-5 14 3 35 9 48 27 90.5 72t60.5 102q22 10 34 15l-72 100q-10-4-27-4-40 0-62 25z" fill="currentColor"/><path d="M613.663 609.483q-45 76-7 97 38 22 82-55 44-75 8-97-39-20-83 55z" fill="#fff"/><path d="M581.663 1852.483q-39 0-54-52t-37-87h1091q-24 35-39 87t-53 52h-455.5zM1532.663 1545.483q50 0 50 50t-50 50h-995q-50 0-50-50t50-50z" fill="currentColor"/><path d="M720.663 317.483l-38 57s144.93 91.485 183 115c-8.212 3.124-8.453 53.509 16 77-82.827 252.888-304 431-304 431s-81.092-57.593-180-204L354.78 863.25c29.777 116.89 323.066 334.249 549.17 401.14 226.104 66.89 456.67 65.239 652.83 13.86 16.208-16.423 31.693-23.342 34.057-38.915 4.522-29.78-8.702-48.673-20.173-52.852-387.743 143.603-792-54-792-54s-94.264-53.417-147-97c59.861-54.11 244.884-239.801 306-431 126.148 29.482 148.779-108.58 102-154 30.25-44.449 79-113 79-113l-58-27s-52.613 72.673-72 100c-37.436-11.11-67.215-2.458-89 21-34.793-22.164-179-114-179-114z" fill="#fff"/></svg>