<svg xmlns="http://www.w3.org/2000/svg" width="2048" height="2048"><path d="M570.5 927.5q-5-75-9.5-152t-9.5-155q119 80 259 169 102-204 204-405 51 102 102.5 204.5t102.5 203.5q117-79 257-171-5 77-8.5 153.5t-7.5 151.5h371q-68 137-135.5 273.5t-134.5 273.5h-1095q-68-137-135.5-273.5T196.5 926.5q93 1 186.5 1zM517.5 1544.5h994q50 0 50 50t-50 50h-994q-50 0-50-50t50-50zM560.5 1851.5q-39 0-54-52t-37-87h1090q-23 35-38 87t-53 52h-456zM1014.5 348.5q-57 0-96.5-39.5t-39.5-96.5q0-56 39.5-96t96.5-40q56 0 95.5 40t39.5 96q0 57-39.5 96.5t-95.5 39.5z" fill="currentColor"/><path d="M1014.5 885.5q-26 44-52 87t-51 85q25 43 51 86t52 85q25-42 51-85l52-86q-26-42-52-85t-51-87z" fill="#fff"/><path d="M1567.5 599.5q-57 0-96.5-39.5t-39.5-96.5q0-55 39.5-95t96.5-40q56 0 95.5 40t39.5 95q0 57-39.5 96.5t-95.5 39.5zM461.5 599.5q-57 0-96.5-39.5t-39.5-96.5q0-55 39.5-95t96.5-40q56 0 95.5 40t39.5 95q0 57-39.5 96.5t-95.5 39.5z" fill="currentColor"/><path d="M601.5 1092.5q23 44 46.5 88t47.5 88h199q-24-43-47-87t-46-89h-101zM1427.5 1091.5h-200q-24 45-47 89t-47 88h200q23-44 46.5-88t47.5-89z" fill="#fff"/></svg>