<svg xmlns="http://www.w3.org/2000/svg" width="2048" height="2048"><path d="M1692 1712.5q-31 35-50.5 87t-66.5 52H453q-48 0-67-52t-50-87l166-168 172-954H555q-53 0-53-53 0-54 53-54h917q54 0 54 54 0 53-54 53h-117l171 954z" fill="currentColor"/><path d="M1014 758.5q-74 0-74 68v172q0 67 74 67 75 0 75-67v-172q0-68-75-68zM1284 1712.5q-56 0-95.5-39.5t-39.5-95.5v-209q0-55-40-95t-95-40q-57 0-96 40t-39 95v209q0 56-40.5 95.5t-96.5 39.5z" fill="#fff"/><path d="M1506 419.5H521q-58 0-59.5-120.5T460 76.5h183l64 136h153l61-136h186l60 136h154l64-136h182q0 102-2 222.5t-59 120.5z" fill="currentColor"/></svg>