<svg xmlns="http://www.w3.org/2000/svg" width="2048" height="2048"><path d="M1064 398.197l-1 44q207 17 350.5 160t143.5 338q0 87-35 185-48 74-86 157t-45 188H637q-11-112-46-185.5t-84-156.5q-36-93-36-188 0-195 143.5-338t350.5-160l-1-44q-83-32-83-93 0-38 38.5-65.5t92.5-27.5q54 0 93 27.5t39 65.5q0 63-80 93z" fill="currentColor"/><path d="M586 1127.197q38 62 67.5 129.5t29.5 142.5h663q12-136 97-273 47-87 47-186 0-177-140-304t-336-127q-198 0-337 127t-139 304q0 99 48 187z" fill="#fff"/><path d="M946 1298.197l-35-310-135-32v-136l135-36 35-171h135l36 171 135 36v136l-135 32-36 310z" fill="currentColor"/><path d="M1016 278.197q-57 0-57 33 0 32 57 32 56 0 56-32 0-33-56-33z" fill="#fff"/><path d="M1132 1851.197q-45 5-48.5-48t-21.5-89q109-1 220.5-1.5t222.5-.5q-21 35-35 87t-48 52h-144.5zM895 1851.197H605q-34 0-47.5-52t-34.5-87q111 0 221.5.5t221.5 1.5q-18 36-20.5 89.5t-50.5 47.5zM655 1544.197h718q50 0 50 50t-50 50H655q-50 0-50-50t50-50z" fill="currentColor"/></svg>