<svg xmlns="http://www.w3.org/2000/svg" width="2048" height="2048"><path d="M1050.108 346.5h98q71 0 121.5 50.5t50.5 120.5v114l43-75q35-61 103.5-79.5t130.5 16.5l233 134q60 36 79 105t-17 129l-203 353q-55 93-163 89h103q55 0 95 40t40 95v69q0 56-40 95.5t-95 39.5h-1230q-56 0-95.5-39.5t-39.5-95.5v-69q0-55 39.5-95t95.5-40h103q-110 4-163-90l-203-352q-36-61-17.5-129.5t79.5-104.5l233-134q60-35 129-16.5t105 78.5l44 77-1-115q0-70 50-120.5t122-50.5h99l-17-86-83-18v-67l83-16 16-85h71l16 85 84 16v67l-84 18z" fill="currentColor"/><path d="M399.108 1371.5q-68 0-68 67v68q0 68 68 68h1230q67 0 67-68v-68q0-67-67-67z" fill="#fff"/><path d="M1458.108 1421.5h135v103h-135zM434.108 1421.5h136v103h-136zM776.108 1421.5h135v103h-135zM1117.108 1421.5h135v103h-135z" fill="currentColor"/><path d="M1413.108 1174.5l76 44q89 52 141-38l204-353q50-88-38-141l-233-134q-90-53-141 37l-171 295 1-367q0-103-103-103h-270q-103 0-103 103v366l-170-294q-52-89-141-38l-233 135q-90 52-38 141l204 353q51 90 141 38l77-45q172-145 398-145 224 0 399 146z" fill="#fff"/><path d="M1442.108 1302.5q-76-94-187.5-150t-240.5-56q-130 0-241 56t-186 150z" fill="#fff"/><path d="M1014.108 517.5q103 0 103 103v201q0 103-103 103t-103-103v-201q0-103 103-103zM1628.108 709.5q89 52 37 140l-100 174q-52 90-141 38t-38-141l101-174q50-89 141-37zM400.108 708.5q88-50 141 38l100 174q52 89-37 141h-1q-90 51-140-38l-101-174q-51-88 38-141zM451.108 1849.5q-48 0-66.5-52t-46.5-87h1352q-28 35-47 87t-66 52h-565z" fill="currentColor"/></svg>