<svg xmlns="http://www.w3.org/2000/svg" width="2048" height="2048"><path d="M1532.72 1474.542h-957q-59 0-61-52t67-115q30-35 65-67t68-64q-25-14-45.5-30.5t-45.5-28.5q-30 27-63.5 49.5t-73.5 25.5q-10 0-30 5t-20-5q-18 4-30-2t-30-9q-23-5-63.5-51.5t-52.5-66.5q-18-75 37-133.5t90-122.5q36-70 83.5-134t58.5-153q69-24 112.5-93.5t95.5-127.5q13-42 11.5-90t-8.5-92q15-11 43-10t56 5q15 3 36 9 48 27 90.5 72t60.5 102q43 21 85 39.5t86 39.5q125 55 237-6-28 48-62 77-16 12-35 24 114 107 261 58-31 40-75 65-12 8-25 13.5t-24 10.5q81 138 238 128-42 32-88 43-29 9-50 7 43 153 197 183-50 19-97 19-23 0-45-3 0 11 4 31-2 69-3 120 61 64 141 79-50 19-97 19-17 0-51-4-8 50-18 105 60 67 145 85-48 19-97 19-41 0-92-16-13 22-29 43z" fill="currentColor"/><path d="M745.72 409.542q-33 48-72 97t-87 64q-9 67-58.5 152t-82.5 140q61 74 132 135 102-102 183-206t121-225q-21-24-21-60 0-13 5-17zM775.72 1130.542l49.5-49.5 46.5-53.5q33-33 34-42l-12.5 5-11.5 9q-23 10-48.5 21.5t-52.5 17.5q-58-8-107 30 25 17 51 32t51 30z" fill="#fff"/><path d="M1073.72 399.542l-34 51q22 21 22 56 0 100-101 100-3 0-23-2-98 214-272 384 21-12 55-19 33 3 53-.5t51-27.5q3 0 90.5-17t45.5 55q-9 24-21.5 53.5t-36.5 60.5q-22 40-56 68 186 78 374.5 82t347.5-56q3-83-16-187-35-203-149-345-53-69-116-118-79-64-214-138zM404.72 928.542q-62 69-74 100 18 29 45 63t69 36q21 9 43.5 0t37.5-21q15-6 41-25-42-33-83-73t-79-80z" fill="#fff"/><path d="M1558.72 1271.542q-174 57-377.5 43.5t-398.5-105.5q-14 13-30 28.5t-34 35.5q-38 39-93.5 80.5t-20.5 52.5h891q48-78 63-135zM784.72 357.542l114 74q23-25 62-25 18 0 28 4l29-43q-39-20-49-25-18-53-26.5-71.5t-38.5-51.5q-18-17-36.5-30.5t-48.5-12.5q7 51 5 88.5t-28 73.5q-11 11-11 19z" fill="#fff"/><path d="M657.72 632.542q42-69 76-50 33 19-7 88-42 69-75 49-35-17 6-87zM581.72 1852.542q-39 0-54-52t-37-87h1090q-23 35-38 87t-53 52h-456zM1531.72 1545.542q50 0 50 50t-50 50h-994q-50 0-50-50t50-50z" fill="currentColor"/></svg>