<svg xmlns="http://www.w3.org/2000/svg" width="2048" height="2048"><path d="M744 1848q-63 0-85-77.5T602 1641h824q-36 52-58 129.5t-84 77.5h-281.5z" fill="currentColor"/><path d="M744 1780h540q20 0 25.5-26.5t17.5-44.5H701q10 18 16 44.5t27 26.5z" fill="#fff"/><path d="M1144 620h78q33 0 33 34t-33 34H806q-34 0-34-34t34-34h77q-37-41-37-104 0-69 49-118.5t119-49.5q69 0 118.5 49.5T1182 516q0 60-38 104z" fill="currentColor"/><path d="M1014 413q-104 0-104 103 0 104 104 104 103 0 103-104 0-103-103-103z" fill="#fff"/><path d="M1192 1506h200q34 0 34 33 0 34-34 34H635q-33 0-33-34 0-33 33-33h199q-91-79-91-204 0-43 14-87l122-459h270l121 459q15 42 15 87 0 121-93 204z" fill="currentColor"/><path d="M1210 1251l-111-427H929l-111 427q-8 23-8 51 0 84 60 144t144 60q84 0 143.5-60t59.5-144q0-27-7-51z" fill="#fff"/></svg>