<svg xmlns="http://www.w3.org/2000/svg" viewBox="0 0 2048 2048" width="2048" height="2048"><path d="M1427.5 1089.5q-24 45-47.5 89t-46.5 88h-200q24-44 47-88t47-89h99.5zm-826 1h200q23 45 46 89t47 87h-199q-24-44-47.5-88t-46.5-88zm-140-493q-57 0-96.5-39.5t-39.5-96.5q0-55 39.5-95t96.5-40q56 0 95.5 40t39.5 95q0 57-39.5 96.5t-95.5 39.5zm0-68q67 0 67-68 0-67-67-67-68 0-68 67 0 68 68 68zm1106 68q-57 0-96.5-39.5t-39.5-96.5q0-55 39.5-95t96.5-40q56 0 95.5 40t39.5 95q0 57-39.5 96.5t-95.5 39.5zm0-68q67 0 67-68 0-67-67-67-68 0-68 67 0 68 68 68zm-997 396q-5-75-9.5-152t-9.5-155q119 80 259 169 102-204 204-405 51 102 102.5 204.5t102.5 203.5q117-79 257-171-5 77-8.5 153.5t-7.5 151.5h371q-68 137-135.5 273.5t-134.5 273.5h-1095q-68-137-135.5-273.5T196.5 924.5q93 1 186.5 1zm834-182q-49 32-101 66.5t-106 72.5q-46-90-92-182.5t-91-185.5q-46 91-92 182.5t-92 181.5q-54-35-105.5-69.5t-100.5-67.5q3 64 10 126.5t10 124.5h-348q51 103 102.5 206t103.5 205h1024l102.5-205 103.5-206h-341q5-137 13-249zm-390 140q25 44 51 87t52 85l-52 86-51 85q-26-42-52-85t-51-86q25-42 51-85t52-87zm0-605q67 0 67-68t-67-68q-68 0-68 68t68 68zm0 68q-57 0-96.5-39.5t-39.5-96.5q0-56 39.5-96t96.5-40q56 0 95.5 40t39.5 96q0 57-39.5 96.5t-95.5 39.5zm-454 1503q-39 0-54-52t-37-87h1090q-23 35-38 87t-53 52h-456zm-43-307h994q50 0 50 50t-50 50h-994q-50 0-50-50t50-50z" fill="currentColor"/></svg>