<svg xmlns="http://www.w3.org/2000/svg" width="2048" height="2048"><path d="M1692 1708.5q-31 35-50.5 87t-66.5 52H453q-48 0-67-52t-50-87l166-168 172-954H555q-53 0-53-53 0-54 53-54h917q54 0 54 54 0 53-54 53h-117l171 954zM1506 415.5H521q-58 0-59.5-120.5T460 72.5h183l64 136h153l61-136h186l60 136h154l64-136h182q0 102-2 222.5t-59 120.5z" fill="currentColor"/><path d="M1506 140.5h-92l-61 132h-218l-60-132H953l-61 132H675l-61-132h-93q0 51 3 131t35 80h913q31 0 32.5-80t1.5-131zM745 1708.5q54 0 94-39.5t40-95.5v-209q0-55 39-95t96-40q55 0 95 40t40 95v209q0 56 39 95.5t91 39.5h324l-139-137-177-984-552 1q-45 246-89 491.5t-88 491.5q-36 34-70.5 68.5t-69.5 68.5z" fill="#fff"/><path d="M1014 754.5q67 0 67 68v172q0 67-67 67-68 0-68-67v-172q0-68 68-68z" fill="currentColor"/></svg>